<svg width="266" height="27" viewBox="0 0 266 27" fill="none" xmlns="http://www.w3.org/2000/svg">
<path d="M28.6471 7.91385C27.2071 7.91385 25.7831 8.52185 24.5671 9.51385L25.3191 10.9698C26.2631 10.1058 27.3991 9.56185 28.3751 9.56185C29.5431 9.56185 30.2471 10.1058 30.2471 11.0018C30.2471 11.6418 29.7031 12.5538 28.8871 13.3858L24.7591 17.8178V19.1938H32.7271V17.4978H27.2551L30.1671 14.4098C31.3511 13.1298 32.2151 11.8658 32.2151 10.7298C32.2151 9.01785 30.7591 7.91385 28.6471 7.91385ZM42.1813 9.43385V7.99385H34.0373V11.2578H35.7013L35.7173 9.68985H40.0693L35.7173 19.1938H37.7173L42.1813 9.43385ZM45.0663 14.7618L48.6983 7.99385H46.8743L43.0503 15.0338V16.4418H48.3943V19.1938H50.1543V16.4418H51.7863V14.7618H50.1543V12.1058H48.3943V14.7618H45.0663ZM56.4844 19.2738C59.4444 19.2738 61.3164 16.9378 61.3164 13.3698C61.3164 9.92985 59.5884 7.91385 56.7564 7.91385C54.3724 7.91385 52.8204 9.35385 52.8204 11.6738C52.8204 13.8498 54.1804 15.2418 56.4204 15.2418C57.8284 15.2418 58.8844 14.6978 59.4764 13.6578C59.5404 16.0738 58.5324 17.7058 56.3564 17.7058C55.5084 17.7058 54.5644 17.4498 53.8764 17.0018L53.1404 18.4258C54.0524 18.9378 55.3804 19.2738 56.4844 19.2738ZM56.7724 13.7538C55.4124 13.7538 54.5804 12.9698 54.5804 11.6898C54.5804 10.3298 55.4924 9.54585 56.8524 9.54585C58.4684 9.54585 59.1884 10.6498 59.1724 11.6258C59.1884 12.7778 58.2924 13.7538 56.7724 13.7538ZM79.1092 19.1938L82.8532 7.99385H80.9012L78.1972 17.0978L75.4772 7.99385L73.6212 8.00985L70.9172 17.0978L68.1972 7.99385H66.1652L69.8772 19.1938H71.8292L74.5172 10.4578L77.1732 19.1938H79.1092ZM89.1273 10.6178C87.6713 10.6178 86.5833 11.1458 85.9753 12.3458V7.32185H84.1353V19.1938H85.9753V15.0018C85.9753 13.4978 86.8873 12.3618 88.4073 12.3458C89.6873 12.3458 90.4553 13.1298 90.4553 14.4098V19.1938H92.2953V13.8978C92.2953 11.8658 91.1113 10.6178 89.1273 10.6178ZM95.6704 7.12985C95.0624 7.12985 94.5984 7.59385 94.5984 8.24985C94.5984 8.88985 95.0624 9.35385 95.6704 9.35385C96.2784 9.35385 96.7424 8.88985 96.7424 8.24985C96.7424 7.59385 96.2784 7.12985 95.6704 7.12985ZM96.5824 19.1938V10.6818H94.7584V19.1938H96.5824ZM103.657 17.2418C103.161 17.4818 102.761 17.6098 102.377 17.6098C101.801 17.6098 101.465 17.3378 101.465 16.4578V12.3778H103.977V11.0018H101.465V8.66585H99.6413V11.0018H98.4413V12.3778H99.6413V16.7938C99.6413 18.5378 100.745 19.2738 102.025 19.2738C102.745 19.2738 103.449 19.0498 104.121 18.6498L103.657 17.2418ZM109.231 10.6178C106.703 10.6338 104.927 12.3778 104.927 14.9538C104.927 17.5138 106.655 19.2578 109.279 19.2578C110.751 19.2578 111.967 18.7298 112.799 17.8178L111.823 16.7778C111.199 17.4178 110.351 17.7698 109.423 17.7698C108.079 17.7698 107.071 16.9538 106.783 15.6418H113.215C113.439 12.5698 112.223 10.6178 109.231 10.6178ZM106.751 14.2978C106.959 12.9378 107.903 12.0898 109.247 12.0898C110.639 12.0898 111.551 12.9218 111.615 14.2978H106.751ZM119.485 17.2418C118.989 17.4818 118.589 17.6098 118.205 17.6098C117.629 17.6098 117.293 17.3378 117.293 16.4578V12.3778H119.805V11.0018H117.293V8.66585H115.469V11.0018H114.269V12.3778H115.469V16.7938C115.469 18.5378 116.573 19.2738 117.853 19.2738C118.573 19.2738 119.277 19.0498 119.949 18.6498L119.485 17.2418ZM126.753 19.1938H128.561L128.545 13.6098C128.529 11.7378 127.297 10.6178 125.105 10.6178C123.489 10.6178 122.625 10.9858 121.441 11.6898L122.193 12.9698C123.041 12.3938 123.889 12.1058 124.705 12.1058C126.049 12.1058 126.737 12.7458 126.737 13.8178V14.0738H124.161C122.113 14.0898 120.945 15.0818 120.945 16.6338C120.945 18.1378 122.097 19.2738 123.937 19.2738C125.169 19.2738 126.145 18.9058 126.753 18.1538V19.1938ZM124.321 17.8178C123.297 17.8178 122.673 17.3218 122.673 16.5538C122.673 15.7378 123.233 15.4178 124.433 15.4178H126.737V16.2018C126.641 17.1298 125.633 17.8178 124.321 17.8178ZM131.936 7.12985C131.328 7.12985 130.864 7.59385 130.864 8.24985C130.864 8.88985 131.328 9.35385 131.936 9.35385C132.544 9.35385 133.008 8.88985 133.008 8.24985C133.008 7.59385 132.544 7.12985 131.936 7.12985ZM132.848 19.1938V10.6818H131.024V19.1938H132.848ZM137.491 19.1938V7.32185H135.651V19.1938H137.491ZM146.415 17.4818V7.99385H144.527V19.1938H151.263V17.4818H146.415ZM158.066 19.1938H159.874L159.858 13.6098C159.842 11.7378 158.61 10.6178 156.418 10.6178C154.802 10.6178 153.938 10.9858 152.754 11.6898L153.506 12.9698C154.354 12.3938 155.202 12.1058 156.018 12.1058C157.362 12.1058 158.05 12.7458 158.05 13.8178V14.0738H155.474C153.426 14.0898 152.258 15.0818 152.258 16.6338C152.258 18.1378 153.41 19.2738 155.25 19.2738C156.482 19.2738 157.458 18.9058 158.066 18.1538V19.1938ZM155.634 17.8178C154.61 17.8178 153.986 17.3218 153.986 16.5538C153.986 15.7378 154.546 15.4178 155.746 15.4178H158.05V16.2018C157.954 17.1298 156.946 17.8178 155.634 17.8178ZM167.313 10.6178C165.873 10.6178 164.785 11.1298 164.177 12.3138V10.6818H162.337V19.1938H164.177V14.6658C164.305 13.3378 165.185 12.3618 166.593 12.3458C167.873 12.3458 168.641 13.1298 168.641 14.4098V19.1938H170.481V13.8978C170.481 11.8658 169.297 10.6178 167.313 10.6178ZM176.45 10.6178C173.922 10.6338 172.146 12.3778 172.146 14.9538C172.146 17.5138 173.874 19.2578 176.498 19.2578C177.97 19.2578 179.186 18.7298 180.018 17.8178L179.042 16.7778C178.418 17.4178 177.57 17.7698 176.642 17.7698C175.298 17.7698 174.29 16.9538 174.002 15.6418H180.434C180.658 12.5698 179.442 10.6178 176.45 10.6178ZM173.97 14.2978C174.178 12.9378 175.122 12.0898 176.466 12.0898C177.858 12.0898 178.77 12.9218 178.834 14.2978H173.97ZM182.736 17.2578C182.16 17.2578 181.744 17.6898 181.744 18.2818C181.744 18.6178 181.888 18.9218 182.176 19.1138L181.568 20.5058H182.512L183.424 19.1298C183.6 18.8738 183.712 18.6018 183.712 18.2818C183.712 17.6418 183.248 17.2578 182.736 17.2578ZM190.011 7.99385V19.1938H194.555C197.947 19.1938 200.395 16.8258 200.395 13.5938C200.395 10.3458 197.963 7.99385 194.603 7.99385H190.011ZM191.899 9.68985H194.571C196.779 9.68985 198.491 11.3218 198.491 13.6098C198.491 15.8818 196.827 17.4978 194.651 17.4978H191.899V9.68985ZM207.409 19.1938H209.217L209.201 13.6098C209.185 11.7378 207.953 10.6178 205.761 10.6178C204.145 10.6178 203.281 10.9858 202.097 11.6898L202.849 12.9698C203.697 12.3938 204.545 12.1058 205.361 12.1058C206.705 12.1058 207.393 12.7458 207.393 13.8178V14.0738H204.817C202.769 14.0898 201.601 15.0818 201.601 16.6338C201.601 18.1378 202.753 19.2738 204.593 19.2738C205.825 19.2738 206.801 18.9058 207.409 18.1538V19.1938ZM204.977 17.8178C203.953 17.8178 203.329 17.3218 203.329 16.5538C203.329 15.7378 203.889 15.4178 205.089 15.4178H207.393V16.2018C207.297 17.1298 206.289 17.8178 204.977 17.8178ZM213.6 19.1938V7.32185H211.76V19.1938H213.6ZM218.319 19.1938V7.32185H216.479V19.1938H218.319ZM226.222 19.1938H228.03L228.014 13.6098C227.998 11.7378 226.766 10.6178 224.574 10.6178C222.958 10.6178 222.094 10.9858 220.91 11.6898L221.662 12.9698C222.51 12.3938 223.358 12.1058 224.174 12.1058C225.518 12.1058 226.206 12.7458 226.206 13.8178V14.0738H223.63C221.582 14.0898 220.414 15.0818 220.414 16.6338C220.414 18.1378 221.566 19.2738 223.406 19.2738C224.638 19.2738 225.614 18.9058 226.222 18.1538V19.1938ZM223.79 17.8178C222.766 17.8178 222.142 17.3218 222.142 16.5538C222.142 15.7378 222.702 15.4178 223.902 15.4178H226.206V16.2018C226.11 17.1298 225.102 17.8178 223.79 17.8178ZM233.037 10.6018C231.405 10.6018 229.901 11.3378 229.901 13.0658C229.885 16.1378 234.365 15.1618 234.365 16.9058C234.365 17.5458 233.757 17.8178 232.973 17.8178C232.045 17.8178 230.861 17.4178 230.125 16.7618L229.469 18.0738C230.317 18.8418 231.645 19.2578 232.893 19.2578C234.605 19.2578 236.157 18.4738 236.157 16.7298C236.173 13.6418 231.645 14.4898 231.645 12.9218C231.645 12.3138 232.173 12.0738 232.893 12.0738C233.645 12.0738 234.589 12.3618 235.341 12.8258L236.013 11.4658C235.245 10.9218 234.109 10.6018 233.037 10.6018ZM238.392 17.2578C237.816 17.2578 237.4 17.6898 237.4 18.2818C237.4 18.6178 237.544 18.9218 237.832 19.1138L237.224 20.5058H238.168L239.08 19.1298C239.256 18.8738 239.368 18.6018 239.368 18.2818C239.368 17.6418 238.904 17.2578 238.392 17.2578ZM253.315 9.68985V7.99385H244.339V9.68985H247.875V19.1938H249.763V9.68985H253.315ZM260.117 13.3698L263.877 7.99385H261.669L258.917 11.8818L256.181 7.99385H253.989L257.781 13.4498L253.701 19.1938H255.909L258.917 14.9698L261.941 19.1938H264.197L260.117 13.3698Z" fill="#C2C2C2"/>
<path fill-rule="evenodd" clip-rule="evenodd" d="M2.625 11.9322C2.625 8.48227 5.50791 5.69385 8.99508 5.69385C12.4921 5.69385 15.375 8.48227 15.375 11.9322C15.375 13.6706 14.7428 15.2846 13.7021 16.6525C12.5541 18.1615 11.1391 19.4762 9.54641 20.5082C9.18188 20.7467 8.85291 20.7647 8.45284 20.5082C6.85105 19.4762 5.43607 18.1615 4.29787 16.6525C3.25649 15.2846 2.625 13.6706 2.625 11.9322ZM6.89563 12.1264C6.89563 13.2821 7.83871 14.1911 8.99505 14.1911C10.1521 14.1911 11.1043 13.2821 11.1043 12.1264C11.1043 10.9797 10.1521 10.0265 8.99505 10.0265C7.83871 10.0265 6.89563 10.9797 6.89563 12.1264Z" fill="#C2C2C2"/>
</svg>
